<svg xmlns="http://www.w3.org/2000/svg" width="1080" height="1080" viewBox="0 0 1080 1080"><path d="M877.61,176.22c-17.07-57.84-90.93-95.72-151.39-78.35-43.38,12.47-75.64,40.74-104.92,73q-4.23,4.67-8.32,9.43c-1.94-16-4.62-32.44-8.06-49.69-4.6-23-13-40-25.65-52-11-10.39-25.68-17.44-43.76-21A130.19,130.19,0,0,0,442.32,75c-35,21.94-55.68,57.57-71,93.4-24.2-28.29-52.54-51.7-88.82-65.15-47.72-17.71-87.93-6.42-110.13,31-13,21.95-17.75,46.35-17.87,71.28-.16,38.52,8.84,75.64,22.9,111.29,10.24,25.93,22.43,51.09,34,77.28-8.65.59-14.06,3-14,13.88.42,63-.49,126-.08,189,.46,71,6.12,141.48,28.83,209.33,24.3,72.62,67.49,129.17,144,151.15,34.09,9.81,70.13,14.23,105.63,17.47,59,5.39,117.52.58,174.31-18,57-18.69,99-53.48,112.28-114,7.82-35.73,13.23-72.5,14.69-109,3.47-87.73,3.75-175.6,6-263.38a63.31,63.31,0,0,1,7.6-28.27C821.91,386.56,855.31,332,872.8,269.85,881.46,239.08,887,207.92,877.61,176.22ZM523.16,314.91c-1.36-.05-2.72-.08-4.08-.1-6.41-.07-12.73.14-19,.48,1.52-1.65,3.08-3.27,4.72-4.85,10.68-10.44,23.27-19.78,37-28.6Q532.2,298.19,523.16,314.91ZM582.85,186q1.74,14.75,2.59,28.94-7,9.54-13.69,19.34l-1.39-.33c-.75-.17-1.5-.28-2.25-.42l-4.54-.8c-1.51-.26-3-.39-4.53-.58s-3-.37-4.56-.49a221.27,221.27,0,0,0-35.8.28l-.55.05c.64-.62,1.28-1.24,1.91-1.88,1.8-1.64,3.7-3.2,5.48-4.91s3.8-3.23,5.76-4.8c1-.78,2-1.51,3-2.32s2-1.64,3-2.38c2.09-1.5,4.12-3.09,6.28-4.55l3.2-2.29,1.6-1.15,1.66-1.09c8.75-6,18-11.7,27.62-17.5,1.2-.73,2.39-1.49,3.61-2.21C581.79,186.6,582.32,186.3,582.85,186ZM458.56,100.86a99.33,99.33,0,0,1,71.09-13.19c12.29,2.4,21.91,6.83,28.59,13.16,7.92,7.5,13.38,19.2,16.69,35.78,2.63,13.13,4.78,25.77,6.47,38.06l-3.63,1c-1.37.4-2.74.84-4.11,1.26a249,249,0,0,0-32,12.55A178,178,0,0,0,512,207.2a131.55,131.55,0,0,0-25,24c-1.12,1.52-2.29,3-3.38,4.53l.41,0c.21,0,.43,0,.65,0h.19l-1.33.15q-.86,1.2-1.62,2.46L479.63,242c-.19.31-.39.58-.58.94l-.58,1.06a21.14,21.14,0,0,0-.94,2.24,14.11,14.11,0,0,0-.84,5,7.67,7.67,0,0,0,.15,1.4l.15.71c.07.24.16.48.25.72a6.67,6.67,0,0,0,1.83,2.65,9.77,9.77,0,0,0,1.36.91c.47.19,1,.38,1.44.53l1.41.24c.45,0,.89,0,1.33,0a8.71,8.71,0,0,0,1.28-.11c.39,0,.86-.1,1.2-.17l2.11-.41c11.24-2.18,22.34-4.73,33.42-7.22s22.2-4.7,33.4-6.21c3.24-.46,6.49-.85,9.75-1.13q-4.42,6.69-8.68,13.47-7.89,2.79-15.6,6.13A190.12,190.12,0,0,0,514.58,277a149.16,149.16,0,0,0-24,18.87,115.16,115.16,0,0,0-18.87,24.19A17.32,17.32,0,0,0,470.1,324a12.33,12.33,0,0,0-.45,4.42,7,7,0,0,0,2.13,4.59,7.29,7.29,0,0,0,4.65,1.76h1.14c.37,0,.72-.08,1.08-.12.75-.08,1.33-.21,2-.32,1.24-.24,2.49-.45,3.73-.71,2.47-.5,5-1,7.41-1.55,8.41-1.82,16.77-3.75,25.14-5.56C510.25,339,503.77,351.47,497.34,364c-4.45,8.7-8.93,17.38-14.39,28-1.8-4-2.73-5.54-3.17-7.19-18.19-67.93-45.84-131.45-86.8-188.6C407.22,159.74,425.76,121.44,458.56,100.86Zm-35.37,236L349.05,348l-2.58-4,60-44.3C413,314.09,417.86,325,423.19,336.84ZM350.28,200.28l-72.69,40.45c11.67-26.2,31-46.06,51.55-66.9Zm-155.95,21a198.36,198.36,0,0,1,.48-49.36c4.46-31.68,24.91-46.4,56.35-42.33,25.82,3.33,48,14.43,67.67,34.31-43.42,28.15-64.69,70.58-81.12,116.05-1.78,5,.43,14.89,4.19,17.39,4,2.63,13.53,1.24,18.06-2C284.18,278,307.2,259,331.49,241.84c9.92-7,22-11,34.7-17.07,11,19.8,21.57,38.81,32.87,59.12-9.48,3.77-17.5,6.67-25.28,10.12-32.17,14.28-57.58,36.21-72.45,68.38-3.14,6.8-3.26,17.9.4,23.86,2.25,3.67,14.5,2.76,21.85,1.47,26.15-4.58,52.1-10.27,78.16-15.42,10.7-2.1,21.45-3.83,32.9-5.87,3.12,8.9,6.3,16.94,8.65,25.23.74,2.58.28,6.66-1.36,8.6C428.66,416,415,431.31,399.72,448.74c-10.31-12.29-19.84-22.68-28.25-33.91-9.71-13-19.41-14.06-30.44-2.05-14.54,15.85-29,31.79-43.88,48.2-22.52-14.44-42.45-28.27-51.71-56C225.27,344.5,201.47,285.18,194.33,221.25Zm549.54,267c-1.6,83.67-2.53,167.33-5.22,251-.9,27.81-4.72,55.79-10.08,83.14-12.59,64.14-54.9,98.37-117.17,110-80,14.9-159.36,9.51-237.59-10.83-62.59-16.28-96.68-61.72-115.37-120.7-17.8-56.18-21-114.44-24-172.71-2.84-55.51-5.67-111-9-166.5-.68-11.32-3.59-22.48-5.67-34.92,23.84,21.72,45.7,42,67.92,61.8,13.41,12,19.19,10.63,30.38-3.21C329,471.73,341,459.08,354,444.39c10.59,12,20.55,22.05,29,33.21,11.2,14.71,20.84,15.3,33,1,12.75-15.05,25.8-29.84,40.37-46.64,14.48,13.45,28.21,26,41.67,38.82,5.31,5.06,10.24,10.55,15.07,16.11,17.72,20.36,21.5,23.16,40.29-6.27,9.28-14.52,19.16-28.66,31.05-46.38,13.17,36.57,30.95,63.3,67.26,70.83,35.5,7.36,62.76-11.13,92.15-31.54C743.89,479.77,744,484,743.87,488.27Zm-37.12-33.19c-44.54,32.58-77,21.73-93.27-31-1.87-6.07-3.41-12.22-5.72-20.56l136.61,23.14C733.73,434.68,720.4,445.1,706.75,455.08Zm52.59-44.4-129-38.29c28.43-19.72,79.43-17.09,113.16,6.5,7.7,5.37,16.83,8.73,26.48,13.63C767.13,397.41,762.8,404.82,759.34,410.68ZM805.13,331c-27.33-15.86-54.33-31.54-81.9-47.57,33.66-9,63.25,5.44,94.62,19.33Q810.89,318.17,805.13,331Zm38.22-112.73c-1.88,18.45-7.89,36.46-12.16,55.2-63.91-38.66-125.74-23.69-187.09-.46-5.1,1.92-10,12.34-9.48,18.34.38,4.35,9.76,11.13,15.3,11.32,52.3,1.77,97.92,21.95,143,49.7-4.35,7.86-8.63,15.62-12.58,22.78-26.67-32.74-61.07-46.56-101.88-45.57-39,1-73.06,16.18-104.49,38.17-6.72,4.7-16,9.6-11.61,19.21,3.06,6.73,10.75,11.36,15.94,16.51l-44.24,62c-11-12.39-24-27-37.69-42.46,45.33-71.66,84-149.2,143.33-212.92,26-27.84,55.42-50.88,90.53-66.28,20.22-8.88,40.76-10.17,61.7-3.09C828.75,153.08,847.27,179.65,843.35,218.22Z"/><text transform="translate(355.17 661.46)" font-size="109.15" font-family="MyriadPro-Regular, Myriad Pro">Haz tu<tspan x="-17.74" y="130.98">pedido</tspan></text></svg>